<?xml version="1.0" encoding="iso-8859-1"?>
<!-- Generator: Adobe Illustrator 19.0.0, SVG Export Plug-In . SVG Version: 6.00 Build 0)  -->
<svg version="1.1" id="Layer_1" xmlns="http://www.w3.org/2000/svg" xmlns:xlink="http://www.w3.org/1999/xlink" x="0px" y="0px"
	 viewBox="0 0 473.931 473.931" style="enable-background:new 0 0 473.931 473.931;" xml:space="preserve">
<circle style="fill:#357180;" cx="236.966" cy="236.966" r="236.966"/>
<path style="fill:#444545;" d="M190.04,244.172c0,0,33.002-2.2,111.115-29.702c0,0,30.798-18.705,37.399,4.397
	c0,0,10.649,45.219,20.939,56.912c0,0,28.063,10.133,41.043,3.966c0,0,17.283-2.14,19.76,3.36c0,0,4.445,9.841-10.23,13.874
	c0,0-26.398,1.833-57.208-5.504c0,0-17.526-0.771-37.332-34.873c0,0-47.745,20.943-108.986,20.572c0,0-53.904-9.901-93.51-50.604
	l8.801-13.201C121.832,213.37,162.538,241.972,190.04,244.172z"/>
<path style="fill:#D4DFDC;" d="M326.061,197.89c-2.354-7.772-10.559-12.161-18.32-9.803l-74.742,22.881
	c-7.768,2.35-12.157,10.555-9.803,18.32c2.35,7.768,10.556,12.153,18.32,9.803l74.745-22.877
	C324.029,213.857,328.407,205.651,326.061,197.89z"/>
<path style="fill:#C6CBC8;" d="M326.061,197.89l-102.865,31.397c2.35,7.768,10.556,12.153,18.32,9.803l74.745-22.877
	C324.029,213.857,328.407,205.651,326.061,197.89z"/>
<path style="fill:#444545;" d="M221.396,241.426l-40.707,6.597c0,0-23.652-31.352-26.956-73.159l16.505-5.504
	C170.239,169.363,183.994,223.825,221.396,241.426z"/>
<g>
	<path style="fill:#4FAFB9;" d="M101.48,118.21c0,0,17.055,37.956,52.254,56.658c0,0,22.009-3.85,20.905-9.901
		c-1.1-6.047-48.953-25.306-62.704-44.007L101.48,118.21z"/>
	<path style="fill:#4FAFB9;" d="M122.067,214.553c0,0,5.223-6.877-2.75-9.901c-5.171-1.957-10.361,0.917-16.411,8.067
		c-4.932,5.837-28.146,46.94-58.951,51.891l-6.047,7.151c0,0,51.157-2.2,75.359-44.007L122.067,214.553z"/>
</g>
<g>
	<circle style="fill:#444545;" cx="355.617" cy="217.209" r="25.306"/>
	<ellipse style="fill:#444545;" cx="372.492" cy="232.251" rx="7.151" ry="8.617"/>
</g>
<path style="fill:#4FAFB9;" d="M383.661,222.725c0,3.341-2.705,6.047-6.05,6.047l0,0c-3.341,0-6.05-2.709-6.05-6.047v-7.704
	c0-3.345,2.713-6.05,6.05-6.05l0,0c3.349,0,6.05,2.709,6.05,6.05V222.725z"/>
<g>
	<circle style="fill:#D4DFDC;" cx="391.126" cy="223.896" r="3.248"/>
	<ellipse style="fill:#D4DFDC;" cx="396.889" cy="206.433" rx="6.788" ry="4.984"/>
	<path style="fill:#D4DFDC;" d="M391.014,192.495c-6.073,0-10.971-3.136-10.971-6.997c0-3.854,4.898-6.99,10.971-6.99
		s10.978,3.136,10.978,6.99C401.992,189.359,397.087,192.495,391.014,192.495z"/>
</g>
<g>
</g>
<g>
</g>
<g>
</g>
<g>
</g>
<g>
</g>
<g>
</g>
<g>
</g>
<g>
</g>
<g>
</g>
<g>
</g>
<g>
</g>
<g>
</g>
<g>
</g>
<g>
</g>
<g>
</g>
</svg>
